<svg width="382" height="82" xmlns="http://www.w3.org/2000/svg" xmlns:xlink="http://www.w3.org/1999/xlink"><defs><path d="M121 30c-.91-.196-1.517.027-2 0-.144.602-.751.826-1 1h-3l10-10c.14-.125.142-1.028 0-2-.767.077-1.24-.054-2 0l-19 19c.038-.065-.894-1.301 1-3 .213-.511 1.97-2.249 4-4l-14-1v-9c.409-.453-2.935 2.128-3 7-.168 1.678-.374 5.982 0 9-.485 2.63-1.292 5.054-2 6 1.464-.323 2.983-.5 5-1h4c10.177.793 13.278-1.382 17-4 2.133-2.283 8.164-8.055 8-8h-3zM86 44v-1c-5.092 2.09-11.525 2.958-19 3-7.73-.571-14.64-1.31-20-3 1.915 2.177 3.444 4.686 4 7 2.623.718 4.87 1 7 1 20.32 0 27.763-6.431 28-7zM36 56c.062-.07 2.83-1.684 4-2 2.49-1.951 3.866-3.029 4-4 .012.332-.001.242 0 0-.183-.028-.488-.487-5 2-.908.509-3.874 2.272-4 2 .368.86.688 1.411 1 2zm-2-3c3.208-5.712 3.238-6.722 3-7-.614-.19-1.518.34-5 6 .63.283 1.217.617 2 1zm-6 4c-.958.205-1.793 1.039-2 2-.248 1.787 1.215 3.25 3 3 .965-.208 1.8-1.046 2-2 .241-1.794-1.216-3.246-3-3zm-2 8c-1.79-1.469-2.847-3.35-3-5 .153-3.71 2.808-6.383 6-6 .287-.383.752-.344 1 0-.017-.308.139-.632 0-1-.745.068-1.332 0-2 0-3.269 0-6 2.797-6 6 0 2.743 1.443 4.994 4 6 .027.109.148-.24 0 0zm3-14c.36-.065.68-.041 1 0v-2c.001-.759.004-2.84 0-5-.28-2.591-.638-3-1-3-.36 0-.719.414-1 3-.003 2.206 0 4.278 0 6v1c.34-.038.682-.065 1 0zm21 3c3.892 14.677-7.034 28-22 28C14.184 82 8.567 70.217 9 70c2.571-.895 5.687 9.383 19 9 8.708.383 15.808-4.654 19-12 .87-2.157 1.486-5.33 1-8 .432-1.67.058-3.002 0-3-.21-.77-.424-1.008-1-1-.192.134-.452.489 0 1-.374.278.015 2.762-1 7l-9-3c-.078 1.281-.345 2.205-1 3 2.371 1.332 4.645 2.837 4 3 .093.791-2.344-.422-5-2-.08 1.192-.784 1.894-2 2 1.574 2.478 2.538 4.145 3 4 .618 2.014 2.248 4.727 2 5-1.215.573-2.728-2.156-4-4 .167-.067-.798-1.737-2-4-.825.632-1.757.886-3 1v4c.262 2.407.315 5.57-1 6-.376-.428-.32-3.547 0-6-.32.245-.32-1.691 0-4-1.299-.123-2.226-.386-3-1-1.254 2.251-2.226 3.934-2 4-1.308 1.804-2.845 4.571-4 4-.31-.273 1.3-2.946 2-5 .405.143 1.378-1.54 3-4-1.238-.13-1.928-.82-2-2-.664.491-1.88 1.197-2 2-1.936.331-3.426 1.025-4 1-.04-1.035 1.344-1.99 3-3 .367-.201 1.547-.877 2-1-.775-1.063-1.061-2.266-1-4-.061-3.046 2.057-6.057 5-7l-1-2c-.207-.665-1.212-2.409-2-4-1.735-2.253-2.221-2.432-3-2 .322-.167-.028.035 1 3 .377-.08 1.486 2.03 1 2 .486.03-3.158-1.804-8-2-2.027 1.321-3.834 3.789-5 7-.35 1.607-.499 3.17-2 3 0-9.094 11.017-22.694 27-20 8.588 2.107 15.315 8.52 17 17zm11 2c-3.243-.497-5.733-.75-8-1 .288 1.382.44 2.938 0 5 .44.93.322 2.303 0 4 3.244-.057 6.934.109 11 0 3.537-.251 6.732-.695 10-1-.306-3.442.57-6.393 2-9-4.15 1.213-9.266 1.816-15 2zm7-37v-3c-2.104.32-4.404.21-6 0-2.256.071-4.903.015-7 0l-1 27s1.493-.224 2-3c-.327.323.234-10.044 0-10h10l2-1-9-1c.688-3.784 1.868-8.95 9-9zM8 40s14.003-7.302 21-15v-4c-1.856 2.864-7.174 9.47-21 18v1zm-1 6H0v-4c23.172-15.606 30.41-29.846 30-30 2.801-.575 18.692-1.332 33-1 13.866.64 29.252 2.582 32 3-.015.738.005 2.332 0 3-4.094-1.067-16.415-2.621-32-3-12.844-.603-24.336-.17-30 0v21c-1.79-.323-3.134-.442-4 0-9.33-.442-17.11 4.127-22 11zm42-28c.62-.54 1.185-.837 2-2-5.468-.04-8.228.022-13 0l-1 18c3.33 2.582 8.948 4.372 14 5v-1c-7.347-.9-7.416-7.033-7-9-.416-1.227.515-.604 1-1 .9.072 1.383-1.223 1-2 .383-1.812.058-2.09 0-2 .058-.815.33-.929 0-2 .33-.624-.332-1.187-2-1-3.98-.187-3.307 2.954-3 5-.307 1.504-1.323 2.274-2 3V18c.218.211 8.95-.387 10 0zm36 1c1.435.35 2.259.002 3-1-3.908-.166-8.936-.623-14-1l-1 23c4.695-.318 10.507-1.688 14-3-.29-.221.742-4.697 1-13-.52-.137-1.336-1.058-3-1-1.9-.058-3.036.506-3 2-.036.205.254.319 0 1 .254.045-.093.324 0 2-.093.917.243 2.215 1 2 .718.54 1.827-.002 2 1 .803 1.54.185 3.079-1 4-1.147 1.01-3.462 2.556-9 3l1-19c-.48.228 8.144.35 9 0zm5 44c0 1.813.697 3.148 2 4-.114-.008-.088 0 0 0-.026 0 .01-.014 0 0 .077-.093.075-.166 0 0-.78-1.029-1.224-2.103-1-3-.224-2.63 1.753-4.576 4-5 .388.424.601.44 1 0-.14.48-.134.48 0 0-.07.48-.018.441 0 0 .011.321-.024.257 0 0-.555.08-1.04 0-2 0-1.991 0-4 1.976-4 4zm6 0c0-.328-.673-1-1-1-1.329 0-2 .672-2 1 0 1.329.671 2 2 2 .327 0 1-.671 1-2zm-7 3c-.77-.461-.934-1.234-1-2 .066-3.044 2.277-5.527 5-6 .246-1.914.437-3.705 1-4 .428.295.619 2.044 1 4 .282-.012.847.121 1 0 1.05-.818 1.572-1.714 2-2 .667-1.592 2.234-4.383 3-4 .723.468-.915 3.163-2 5-.034.084-.548.965-1 2 .258.436.673.84 1 1 1.917-.721 3.93-1.672 4-1 .481.274-1.35 1.518-3 3 .03.153.178.711 0 1 1.56.295 2.583.296 3 0 1.775.296 5.001.242 5 1 .001.943-3.178.887-5 1-.42-.111-1.464-.111-3 0 .113.443-.05.971 0 1 .897 1.136 1.819 1.662 2 2 1.718.747 4.539 2.297 4 3-.321.771-3.046-.851-5-2 .01.04-.935-.499-2-1-.478.228-.88.59-1 1 .384 1.112.95 2.08 1 2 1.046 1.961 2.707 4.7 2 5-.783.55-2.323-2.202-3-4-.447-.127-1.03-1.126-2-2-.23-.199-.731-.081-1 0-.253 1.44-.253 2.634 0 3-.253 1.81-.2 5.002-1 5-.92.002-.863-3.144-1-5v-3c-.357-.182-.83-.32-1-1-1.045 1.802-1.677 2.886-2 3-.778 1.772-2.344 4.563-3 4-.833-.288.804-2.983 2-5-.07.086.571-1.013 1-2-.033-.644-.372-.992-1-1-1.421.626-3.58 1.798-4 1-.332-.491 1.75-1.74 4-3zm278-4c-.71-.607-7.656-4.087-13-7-4.694-2.041-5.69-6.07-5-11-2.9 3.2-3.031 7.393-3 9-.986-.312-6.985-3.023-16-2 .773-3.647-.69-5.806-1-7h-1c.797 1.477.37 4.663-2 5-.21-1.293-1.997-2.6-4-3-8.101.4-9.126 15.392-16 15-1.419.392-2.667-.571-3 1-1.966 6.339-4.645 13.896-5 14 .882.08 1.008.795 1 2-.188-.474-.19-.473 0 0-1.837.841-.461 3 0 3h4c.244 0-.684-1.91-1-3-.184-.057-.48-.326-1 0 1.002-3.13 4.307-11.539 6-12 7.804-.924 13.792-4.388 17-7-1.157 2.3-2.626 3.798-3 4-1.447 1.505-.953 2.087 0 3 .92 1.027 3.073 2.709 7 7-.981.672-1.52 1.07-2 2-.284.407.813 2.912 2 4 .284.106 1.777-3.085 2-3 .281-1.373.247-1.696 0-2v-1c-.004-.202-4.98-8.315-5-8l9-8c2.01.9 9.753 5.036 17 4 3.734 1.083 12.495 2.215 12 2l-1 1c.351.414-.323 4.324-2 8v1c-1.063-.413-2.184-.41-3 0-.823.617-1.837 2.491-2 4 .41.353 3.713-.976 4-1 .888-.537 1.056-.698 1-1 .655-.37 1.31-.599 1-1 .719-.116 2.833-5.754 6-11 .101-.829-.04-1.273 0-1zm-73 11c-.357-.295-.22-.787 0-1-.413-.42-3.87-5.153-7-11 .225-.142-.212-1-1-1-3.663-1.728-11.43-4.623-16-9-1.973-2.39-2.967-3.78-3-5-.182.419-2.187 4.945 0 9l-2-2c-2.805-.7-8.188-2.568-15-2 .136-1.392.352-3.56 0-5-.3.424-2.933 4.918-8 1-2.44-1.877-6.852-1.357-8 4-2.181 7.281-7.384 9.66-11 10-.045.59-.224.715 0 1l-7 14c-.118-.3-1.127-.11-2 0-.752.487-1.325 3.187-1 5 .207 0 3.243-1.82 4-2 .658-.755.487-1.71 0-2h1l8-11c5.971-1.486 10.709-3.45 15-6-.708.586-1.178 1.214-2 2-1.314.873-1.118 1.357-1 2 .439.1 4.954 5.253 7 9-.113.659-.627 1.078-1 2-.576.292.044 2.83 1 4 .356.192 2.197-2.827 2-3 .812-.993.84-1.213 1-2-.059-.214.327-.62 0-1l-5-9c2.21-1.067 5.415-4.544 8-7 1.75-.078 3.527.643 5 1 3.34.863 9.46 5.213 18 4 3.503.02 8.996 1.295 12 2v2c.128-.43 2.973 2.386 5 6-.26.18.16.517 1 1-.77.178-1.665.98-2 2 .097 1.04 2.081 2.94 4 3-.107.482.011-3.05 0-3-.027-1.32-.103-1.55 0-2zm88-36c-.862-.123-2.488-1.872-4-4-.807-.598-2.295-2.504-3-3v4c.496.579 4.189 3.581 4 4 1.167.481.634 1.418 0 1-1.174-.242-1.791 1.727-2 2 .438.12.694 1.015 2 1 .44-.013.723-.43 1 0l1-1c.2.422.32-.909 1-1 .403-1.562-.286-2.813 0-3zm-14 1c.592.848 1.01 1.63 1 2 .446.286 7 .814 7 1l-6-3-1-5c-.236.003-.24.008 0 0-5.789 1.519-14.6 8.352-17 11 7.315 3.115 5.566 12.527 12 14 2.86.558 5.903-.046 8 0h-1c.503.46.91 4.151 0 8v1c-.032.097-1.18-.423-2 0-.917.43-2.201 2.113-2 4-.238 0 3.186-.833 4-1 .506-.243.639-.377 1-1-.068-.08 1.2-.986 1-1 .437-.574.786-6.51 2-13 .257.135.11-.22 0 0l-13-3c-.15-.156 1.842-11.997 6-14zM128 52c7.188 1.298 10.574-4.087 11-4-2.618 1.13-7.74 2.008-8 1 8.172-6.178 16.273-5.327 19-5l1-1c-2.183-1.508-4.995-3-9-3-8.183 0-11.067 4.69-17 5-3.122-.166-5.61-3.02-6-3 .003.213 1.245 8.193 9 10zm81 3c-.213-.666-.359-1-1-1h-14c-.656 3.41 2.05 5.869 4 6 2.551-.564 5.659-1.733 8-3v1c-.282.293.72 5.326 1 9-.763.209-1.633.185-3 1-.309.085-1.27 2.082-1 4-.02 0 3.237-1.38 4-2 .48-.002.728-.267 1-1 .173-.705.983-1.512 1-2 .113-.138-.557-6.096 0-12zm-10 23c-.878-1.418-2.486-4.298-3-7-4.198-6.93-2.592-16.145-3-16-.567-.145-2.225.06-3 2-3.106-5.502-6.43-8.602-14-9-.351.398 1.634 2.44 5 6-6.415-1.796-13.98-2.133-18-2 .974-1.706 1.46-3.27 2-4-.43-.142-2.811 2.711-6 3-5.537-.289-1.505-6-4-6-3.693 0-6.674 3.142-7 7-.488 8.75-5.676 10.042-8 10-1.37.042-1.81.261-2 1-.744.236-8.14 9.221-11 12-.227.118-1.086.124-2 0-1.506.185-2.04 2.852-2 5 .002-.261 3.198-1.287 4-1 .407-.717.75-1.3 1-2 1.73-.839 9.522-8.493 11-9 7.748-1.664 14.048-4.927 18-8-.219 2.15-.968 3.646-2 5-1.008.649-.608 1.214 0 2 1.671 1.402 5.074 4.595 8 8-.15.97-.491 1.779-1 3 .354.57 2.267 2.358 4 3 .116-.217.01-3.747 0-4-.115-1.075-.213-1.265-1-2 .528-.026.773-.381 1 0l-6-9c1.803-1.557 4.936-6.474 7-9 5.174.961 12.261 5.604 19 5 .176-.136 4.007 5.854 6 9 1.649 2.225 3.26 5.483 4 7 .081.115.957.057 2 1-.444.058-.479.366 0 1-.479 1.204.005 1.982 0 2h5c-.45-.594-2.006-2.598-2-3-.722-.429-1.143-.71-2-1zm83 0c-1.629-1.39-3.218-4.275-4-7-.253.054-.51-.373-1-1-.885-1.804-1.219-3.085-2-6-1.181.654-4.718.571-7 0 .118.232 4.23 4.635 6 7 1.96 2.24 3.383 5.154 4 7 .38.005.987-.046 2 1-.454-.281-.798 1.332 0 3 .136.006 5-.005 5 0-.547-.907-1.538-2.25-2-2-.133-1.108-.603-1.589-1-2zm-33-40c-8.591 0-10 4-10 4 2.763-.85 6.459-1.48 10-1 4.434-.48 7.913.209 11 0 4.045.209 5.409-1.039 6-2-.97-.077-2.033.346-5 0-4.157.346-7.255-1-12-1zm-6-7c9.187-1.624 15.523 1.174 18 2-4.693-2.741-10.41-5.55-21-3-12.433 2.843-13.096 6.033-29 7v2c16.995-1.284 20.238-6.125 32-8zm18 5c0-.434 2.945 2.632 7 2 2.437-.687 6.635-4.463 12-9 0 .39-1.022-1-4-1-3.218 0-9.017 3.336-14 3 2.919 2.755 6.402 3.614 7 3-1.591 3.039-8 1.566-8 2zm22-7c1.94-.387 3.066-.928 5-1 2.395.072 4 1 4 1-.002-.326-.163-1.825-1-3 .06-.645-.58-1.103-1 0-.229.343-.4.745-1 1 .166.632-.523.646 0 0-.3-.112.754-2-4-2-4.65 0-6.93 1.184-9 0 2.722 3.115 5.485 3.613 7 4zm-69 23c8.86 1.443 12.377-5.596 19-8-3.505-1.38-8.342 1.093-8 1 6.783-4.23 9.648-3.154 13-2-.678-1.3-1.942-2.315-4-3-9-1.486-11.974 5.784-22 4 .025 0 1.472 3.286 5 3-.022.484-5.055 2.156-9 1 0-.002 1.83 2.886 6 4zm-20-23c6.835-1.548 10.074-3.29 14-1 0 .308.043-1.964-1-3 .055-.345-.63-.436-1 1-.756.626-1.097.434-1 0-.219-.518.062-1.945-2-2-4.308-.105-10.576 3.5-16 0 0 .352 2.562 4.886 7 5zm8 2c-9.401 4.494-12.322 11.046-14 14 5.381 2.949 6.539 8 7 8-.461 0 2.469-12.906 5-16 1.2 1.435 5 3.873 5 4l-3-5v-5zm7 10c-.097.87-1.058 1.445-2 1-.46-1.03-2 .424-2 0 .027.887-.162 1.812 1 2 .513.643.984.408 1 0l1 1c.46 0 1.222-1.127 2-1 1.051-1.073 1-2.526 1-3-.655-.446-2.131-6.222-2-9-.564-.043-.685-.527-1-1 .169.011.03-.003 0 0-1.405 2.594-2.014 3.664-2 4 .296.206 2.405 5.588 3 6zm87-2c.125.99-.625 1.72-1 1-1.198-.374-2.293 1.294-2 1-.173.72-.153 1.622 1 2 .535.059.913-.254 1 0h1c.372 0 .828-1.206 1-2 1.29-.458.944-1.804 1-2-.84-.532-3.367-5.625-4-8-.342-.17-.55-.6-1-1-.67 2.729-1 3.85-1 4 .392.294 3.412 4.893 4 5zm65-9c2.34.14 3.31-.617 6-1 3.901-1.436 7 .149 7 0 .001-.222-.635-2.173-1-3-.44-.565-.968-.563-1 0-.31.26-.684 1.35-1 1 .176.712-.09.66 0 0-.6-.342-1.102-2.235-3-2-12.378 1.875-14 0-14 0 1.652 2.245 4.544 4.807 7 5zm-14 8c3.495-.329 10.816-5.77 13-6-2.564-.443-3.263-1.12-6-1-5.41.367-6.664 5.018-13 3 .476 1.403 3.665 4.24 6 4zm-61 0c-.292.038-.124.601 0 1 .066.198 6 2.432 6 2l-4-4-1-4v-1c-5.167 1.643-9.25 8.792-15 12 6.346 3.457 8.276 8.97 9 11 .477 0 1.716-1.593 2-6 .008-4.627-1.98-7.43 3-11zm32-8c12.47 2.096 22.682 8.38 26 11-3.604.908-8.81-1.908-15-1-4.805.312-7.37 1.852-9 3h1c2.48-.73 5.045-1.204 10-1 4.39-.182 7.514.588 10 1 4.758.282 5-2.565 5-3 0 .435-13.051-9.188-28-11-15.446-2.415-23 .816-23 1v1c.444.003 7.313-2.82 23-1zm1 13c-.002-.155-.003-.267 0 0-1.453-.703-3.12-1-5-1-11.865 0-12.61 8.53-23 9-.555-.47-2.65-.8-3-1v1c.013-.478.028-.462 0 0 1.508.95 5.494 3.9 12 4 7.604.12 11.859-6.021 12-6-1.808 1.024-8.974 4.006-10 3 6.31-6.577 14.405-8.569 17-9zm-135-6c2.046-1.961 4.777-4.71 8-6-.264-1.225-2.18-2-4-2-7.102 0-8.497 7.043-17 5 2.903 3.655 6.693 5.065 13 3zm-84-13h6l4 4c-.152.35 2.33-4.703 3-6 .635-1.452.5-3.182-3-4-1.108.314-2.287.261-3 0l1-3 3 2h8c.106.377.477.026 0 0l1-1c8.768-4.09 27.69 23.86 48 18-21.882 1.556-38.411-22.762-49-19h-1c-1.536-.356-2.251.277-2 0h-3l-1-1h2l3-1h1c1.024.062 2.322.187 2 0 1.13.216 1.81-.428 2-1v-1c16.422-2.193 39.526 21.432 52 21-9.723-.035-35.312-25.233-53-22h-2c-.078.41-.648 1.46-2 1-1.814.403-6.089-.718-6-1-.089.282-.73-1.098-1-1 .157-.37.346-1.065 1-1-.295-.051.827-.011 1 0 .174-.007.281-.126 0 0 .482-.658.677-1.199 1-2 .045-.8.055-1.394 0-1 .055-.394 2.53-.372 3 0-.068-.368.035-.495 0-1-.185-.24-.738-1.279-3-1V0c-.629-.06-4.558-.434-5 2 .863-.8 3.973-1.289 4 0v1c-3.304-.547-7.147-.185-7 1-.46.524 1.991 1.042 3 1-.17.213-.637 1.713-1 2l1 2c.422-.351 1.612 2.052 3 4 .267 1.392-5.004-2.317-5-2-.816.304.218 1.708 0 2 .783 1.062.428 1.129 0 1 .107.37-3.134 1.924-5 3h-2c1.244-1.417 2.427-4.087 3-5 .684-1.004-.87-.564-2 1-.212.357-1.944 2.781-3 4v3c-.062 1.956 1.383 3.533 3 4zM86 3L75 2c-.274-.964-1.695-1.94-3-2-2.837-.085-4.912 1.866-5 4 7.488.78 13.953 1.41 19 2V3zM47 8c1.783.112 2.627 1.049 3 2-.024-.077.413-.082 1 0V8c7.974.164 17.897.505 23 1 1.479.063 1.702 1.193 2 2-.314-.114.563-.038 1 0V9c6.055.597 12.138 1.179 18 2 .013-.66-.025-1.219 0-2-3.655-.336-15.698-2.238-32-3-16.618-.417-28.622.627-33 1-.014.493.025 1.048 0 2 5.908-.701 11.355-.838 17-1zm125 32c-7.084-1.795-16.267-1.43-20 4 2.28-1.446 9.495-3.902 19-2 7.71 1.402 12-2.562 12-3-.045.456-5.265 2.332-11 1zM64 4V0H54c-.584-.03-1.342.545-2 1H41c-1.053-.084-1.918.7-2 2v1c3.709-.176 8.256-.319 14 0 3.71-.319 10.462-.116 11 0zm49 61c-1.177 10.59-10.302 17.969-20 17-4.257-.507-7.89-1.91-12-6 1.214-1.428 3.157 2.602 12 3 8.478 1.3 16.286-5.18 17-14 1.12-8.497-5.18-16.286-14-17-.597-.282-1.368-.31-2 0-.496 1.573-2.043 4.236-4 6-.111.234-.824-.957-1-1-1.49-2.594-2.27-3.403-3-3-.169.116.187 1.283 2 4-.213.28.466 1.487 0 2 .463-.431-.902.743-2 2-.219-.442-1.898-1.37-3-2-1.44-.651-2.363-.875-3 0 .182-.087.832.599 2 2 .906-.02 2.039.678 2 1-1.623.666-3.939 1.665-6 2-.278 1.507-.394 2.762 0 4-.394 1.486-1.077 1.489-2 2a77.382 77.382 0 0 1 0-5c1.177-10.591 10.303-17.97 20-17 10.591 1.177 17.97 10.304 17 20z" id="a"/></defs><g fill="none" fill-rule="evenodd"><mask id="b" fill="#fff"><use xlink:href="#a"/></mask><use fill="#787070" xlink:href="#a"/><g mask="url(#b)" fill="#787070"><path d="M0 0h382v82H0z"/></g></g></svg>