<?xml version="1.0" encoding="UTF-8"?>
<svg width="10px" height="14px" viewBox="0 0 10 14" version="1.1" xmlns="http://www.w3.org/2000/svg" xmlns:xlink="http://www.w3.org/1999/xlink">
    <!-- Generator: Sketch 52.2 (67145) - http://www.bohemiancoding.com/sketch -->
    <title>homepage-lock-signon</title>
    <desc>Created with Sketch.</desc>
    <g id="homepage-lock-signon" stroke="none" stroke-width="1" fill="none" fill-rule="evenodd">
        <g id="lock" fill="#3B3331" fill-rule="nonzero">
            <path d="M5.601,8.085 C5.72205213,8.19938758 5.91147997,8.19894807 6.032,8.084 L7.106,7.05 C7.16351475,6.99624338 7.19632733,6.92115597 7.19670582,6.84243128 C7.1970843,6.76370659 7.16499521,6.68830714 7.108,6.634 C6.98701365,6.51983511 6.79798635,6.51983511 6.677,6.634 L5.601,7.67 C5.54401223,7.72417944 5.51174984,7.79936783 5.51174984,7.878 C5.51174984,7.95663217 5.54401223,8.03182056 5.601,8.086 L5.601,8.085 Z M5.601,9.493 C5.54401223,9.54717944 5.51174984,9.62236783 5.51174984,9.701 C5.51174984,9.77963217 5.54401223,9.85482056 5.601,9.909 L6.676,10.942 C6.7967213,11.056446 6.98574893,11.0568846 7.107,10.943 C7.1642541,10.8889676 7.1967043,10.8137244 7.1967043,10.735 C7.1967043,10.6562756 7.1642541,10.5810324 7.107,10.527 L6.031,9.494 C5.91061376,9.37968309 5.72191664,9.37924426 5.601,9.493 Z M4.138,9.493 C4.01721375,9.3783326 3.82778625,9.3783326 3.707,9.493 L2.632,10.527 C2.57501223,10.5811794 2.54274984,10.6563678 2.54274984,10.735 C2.54274984,10.8136322 2.57501223,10.8888206 2.632,10.943 C2.75284957,11.0565372 2.94115043,11.0565372 3.062,10.943 L4.138,9.909 C4.19498777,9.85482056 4.22725016,9.77963217 4.22725016,9.701 C4.22725016,9.62236783 4.19498777,9.54717944 4.138,9.493 Z M4.138,8.085 C4.19472442,8.0306759 4.22680161,7.9555415 4.22680161,7.877 C4.22680161,7.7984585 4.19472442,7.7233241 4.138,7.669 L3.063,6.635 C2.94214432,6.51992385 2.75238714,6.5194846 2.631,6.634 C2.57427182,6.68845294 2.5423703,6.76379662 2.54274834,6.84242909 C2.54312639,6.92106157 2.57575087,6.99609503 2.633,7.05 L3.707,8.084 C3.827,8.198 4.019,8.199 4.138,8.084 L4.138,8.085 Z M5.904,8.788 C5.90557548,8.86757014 5.93870373,8.94325352 5.99609338,8.9983926 C6.05348303,9.05353168 6.13043049,9.08360731 6.21,9.082 L7.729,9.082 C7.8943112,9.08478818 8.03071682,8.95330211 8.034,8.788 C8.02963497,8.62308785 7.89293575,8.49264284 7.728,8.496 L6.21,8.496 C6.13069412,8.4941216 6.05389233,8.52383554 5.99650138,8.57860076 C5.93911043,8.63336599 5.90583494,8.7086931 5.904,8.788 Z M4.87,9.784 C4.7046933,9.781773 4.56874036,9.91370101 4.566,10.079 L4.566,11.541 C4.566,11.704 4.702,11.835 4.87,11.835 C4.94920844,11.8363362 5.02568906,11.8060786 5.08254387,11.7509126 C5.13939868,11.6957465 5.17194792,11.6202127 5.173,11.541 L5.173,10.08 C5.17025969,9.91509576 5.03491853,9.78332796 4.87,9.785 L4.87,9.784 Z M3.834,8.788 C3.83017489,8.62364362 3.69437715,8.49320632 3.53,8.496 L2.01,8.496 C1.84545098,8.49319923 1.70936478,8.62348503 1.705,8.788 C1.70828318,8.95330211 1.8446888,9.08478818 2.01,9.082 L3.53,9.082 C3.69492361,9.08423187 3.83071633,8.95290602 3.834,8.788 Z M4.87,7.793 C5.03491853,7.79467204 5.17025969,7.66290424 5.173,7.498 L5.173,6.036 C5.16971767,5.87148847 5.03453572,5.74032182 4.87,5.742 C4.70507639,5.73976813 4.56928367,5.87109398 4.566,6.036 L4.566,7.498 C4.56874036,7.66329899 4.7046933,7.795227 4.87,7.793 Z M8.26,5.43 L8.26,3.263 C8.26,1.464 6.738,0 4.87,0 C3,0 1.48,1.464 1.48,3.263 L1.48,5.43 C0.569,6.283 0,7.472 0,8.788 C0,11.374 2.184,13.476 4.87,13.476 C7.554,13.476 9.74,11.374 9.74,8.788 C9.74,7.472 9.17,6.282 8.26,5.43 Z M2.74,3.223 C2.74,2.092 3.694,1.171 4.87,1.171 C6.045,1.171 7,2.091 7,3.223 L7,4.57 C6.33500218,4.25222814 5.60701949,4.0881757 4.87,4.09 C4.104,4.09 3.382,4.262 2.74,4.57 L2.74,3.223 Z M4.87,12.304 C2.856,12.304 1.218,10.728 1.218,8.789 C1.218,6.85 2.856,5.273 4.87,5.273 C6.883,5.273 8.521,6.85 8.521,8.789 C8.521,10.728 6.883,12.304 4.869,12.304 L4.87,12.304 Z" id="Shape"></path>
        </g>
    </g>
</svg>