<?xml version="1.0" encoding="utf-8"?>
<!-- Generator: Adobe Illustrator 20.1.0, SVG Export Plug-In . SVG Version: 6.00 Build 0)  -->
<svg version="1.1" id="Layer_1" xmlns="http://www.w3.org/2000/svg" xmlns:xlink="http://www.w3.org/1999/xlink" x="0px" y="0px"
	 width="20px" height="20.7px" viewBox="0 0 20 20.7" style="enable-background:new 0 0 20 20.7;" xml:space="preserve">
<style type="text/css">
	.st0{fill:#FFFFFF;}
</style>
<path class="st0" d="M10,16.1c-2.1,0-3.8-1.6-3.8-3.7c0-2,1.7-3.7,3.8-3.7s3.8,1.6,3.8,3.7C13.8,14.5,12.1,16.1,10,16.1z M7.8,6.7
	c0-1.2,1-2.1,2.2-2.1c1.2,0,2.2,1,2.2,2.1v1.4c-0.7-0.3-1.4-0.5-2.2-0.5c-0.8,0-1.5,0.2-2.2,0.5V6.7z M13.5,9V6.7
	c0-1.9-1.6-3.4-3.5-3.4c-1.9,0-3.5,1.5-3.5,3.4V9C5.6,9.9,5,11.1,5,12.5c0,2.7,2.2,4.9,5,4.9s5-2.2,5-4.9C15,11.1,14.4,9.9,13.5,9
	L13.5,9z M10,11.4c0.2,0,0.3-0.1,0.3-0.3V9.6c0-0.2-0.1-0.3-0.3-0.3c-0.2,0-0.3,0.1-0.3,0.3v1.5C9.7,11.3,9.8,11.4,10,11.4z
	 M8.9,12.5c0-0.2-0.1-0.3-0.3-0.3H7.1c-0.2,0-0.3,0.1-0.3,0.3c0,0.2,0.1,0.3,0.3,0.3h1.6C8.8,12.8,8.9,12.6,8.9,12.5z M10,13.5
	c-0.2,0-0.3,0.1-0.3,0.3v1.5c0,0.2,0.1,0.3,0.3,0.3c0.2,0,0.3-0.1,0.3-0.3v-1.5C10.3,13.7,10.2,13.5,10,13.5z M11.1,12.5
	c0,0.2,0.1,0.3,0.3,0.3h1.6c0.2,0,0.3-0.1,0.3-0.3c0-0.2-0.1-0.3-0.3-0.3h-1.6C11.2,12.2,11.1,12.3,11.1,12.5z M9.2,11.7
	c0.1-0.1,0.1-0.3,0-0.4l-1.1-1.1c-0.1-0.1-0.3-0.1-0.4,0c-0.1,0.1-0.1,0.3,0,0.4l1.1,1.1C8.9,11.9,9.1,11.9,9.2,11.7z M9.2,13.2
	c-0.1-0.1-0.3-0.1-0.4,0l-1.1,1.1c-0.1,0.1-0.1,0.3,0,0.4c0.1,0.1,0.3,0.1,0.4,0l1.1-1.1C9.4,13.5,9.4,13.3,9.2,13.2z M10.8,13.2
	c-0.1,0.1-0.1,0.3,0,0.4l1.1,1.1c0.1,0.1,0.3,0.1,0.4,0c0.1-0.1,0.1-0.3,0-0.4l-1.1-1.1C11.1,13.1,10.9,13.1,10.8,13.2z M10.8,11.7
	c0.1,0.1,0.3,0.1,0.4,0l1.1-1.1c0.1-0.1,0.1-0.3,0-0.4c-0.1-0.1-0.3-0.1-0.4,0l-1.1,1.1C10.6,11.4,10.6,11.6,10.8,11.7z"/>
</svg>
